<svg height="480pt" viewBox="0 -28 480 480" width="480pt" xmlns="http://www.w3.org/2000/svg"><path d="m208 312h64v64h-64zm0 0" fill="#898890"/><path d="m472 40c0-17.671875-14.328125-32-32-32h-400c-17.671875 0-32 14.328125-32 32v208h464zm-352 128v-80l-24 24 24-24zm96 0c13.71875-13.71875 33.0625-28.734375 42.953125-45.441406 4.363281-6.925782 4.628906-15.675782.691406-22.855469s-11.457031-11.660156-19.644531-11.703125c-13.253906 0-24 10.746094-24 24 0-13.253906 10.746094-24 24-24 8.1875.042969 15.710938 4.519531 19.648438 11.699219 3.941406 7.179687 3.675781 15.933593-.6875 22.859375-9.898438 16.707031-29.242188 31.722656-42.960938 45.441406zm176-20c-2.125 11.585938-12.222656 20-24 20s-21.875-8.414062-24-20c2.125 11.585938 12.222656 20 24 20s21.875-8.414062 24-20c-1.199219-12.101562-11.882812-21.003906-24-20 12.117188 1.003906 22.800781-7.898438 24-20-2.125-11.585938-12.222656-20-24-20s-21.875 8.414062-24 20c2.125-11.585938 12.222656-20 24-20s21.875 8.414062 24 20c-1.199219 12.101562-11.882812 21.003906-24 20 12.117188-1.003906 22.800781 7.898438 24 20zm0 0" fill="#c2fb3b"/><path d="m8 248v32c0 17.671875 14.328125 32 32 32h400c17.671875 0 32-14.328125 32-32v-32zm0 0" fill="#c6c5ca"/><path d="m136 376v40h208v-40zm0 0" fill="#57565c"/><path d="m440 0h-400c-22.082031.0273438-39.9726562 17.917969-40 40v240c.0273438 22.082031 17.917969 39.972656 40 40h160v48h-64c-4.417969 0-8 3.582031-8 8v40c0 4.417969 3.582031 8 8 8h208c4.417969 0 8-3.582031 8-8v-40c0-4.417969-3.582031-8-8-8h-64v-48h160c22.082031-.027344 39.972656-17.917969 40-40v-240c-.027344-22.082031-17.917969-39.9726562-40-40zm-400 16h400c13.253906 0 24 10.746094 24 24v200h-448v-200c0-13.253906 10.746094-24 24-24zm296 392h-192v-24h192zm-72-40h-48v-48h48zm176-64h-400c-13.253906 0-24-10.746094-24-24v-24h448v24c0 13.253906-10.746094 24-24 24zm0 0"/><path d="m101.65625 117.65625 10.34375-10.34375v60.6875c0 4.417969 3.582031 8 8 8s8-3.582031 8-8v-80c0-3.234375-1.949219-6.152344-4.9375-7.390625s-6.429688-.550781-8.71875 1.734375l-24 24c-3.03125 3.140625-2.988281 8.128906.097656 11.214844 3.085938 3.085937 8.074219 3.128906 11.214844.097656zm0 0"/><path d="m368 160c-8.671875 0-16-5.496094-16-12 0-4.417969-3.582031-8-8-8s-8 3.582031-8 8c2.15625 16.023438 15.832031 27.984375 32 27.984375s29.84375-11.960937 32-27.984375c-.097656-7.753906-3.609375-15.070312-9.601562-20 5.992187-4.929688 9.503906-12.246094 9.601562-20-2.15625-16.023438-15.832031-27.984375-32-27.984375s-29.84375 11.960937-32 27.984375c0 4.417969 3.582031 8 8 8s8-3.582031 8-8c0-6.503906 7.328125-12 16-12s16 5.496094 16 12-7.328125 12-16 12c-4.417969 0-8 3.582031-8 8s3.582031 8 8 8c8.671875 0 16 5.496094 16 12s-7.328125 12-16 12zm0 0"/><path d="m216 120c4.417969 0 8-3.582031 8-8 0-8.835938 7.164062-16 16-16 5.082031-.171875 9.832031 2.511719 12.304688 6.953125 2.710937 4.84375 2.621093 10.773437-.242188 15.535156-8.273438 11.996094-18.148438 22.804688-29.34375 32.136719-4.34375 4-8.566406 7.910156-12.375 11.71875-2.285156 2.289062-2.972656 5.730469-1.734375 8.71875s4.15625 4.9375 7.390625 4.9375h48c4.417969 0 8-3.582031 8-8s-3.582031-8-8-8h-27.847656c11.390625-9.691406 21.378906-20.917969 29.679687-33.359375 5.78125-9.710937 5.921875-21.773437.367188-31.617187-5.347657-9.402344-15.382813-15.15625-26.199219-15.023438-17.671875 0-32 14.328125-32 32 0 4.417969 3.582031 8 8 8zm0 0"/></svg>