<svg height="512" viewBox="0 0 256 256" width="512" xmlns="http://www.w3.org/2000/svg"><rect fill="#63bce7" height="154.91" rx="14.009" width="224.78" x="15.61" y="28.596"/><rect fill="#f8af23" height="125.366" rx="5.388" width="207.538" x="24.231" y="37.216"/><path d="m42.731 157.195v-114.595a5.4 5.4 0 0 1 5.388-5.388h-18.5a5.4 5.4 0 0 0 -5.388 5.388v114.59a5.4 5.4 0 0 0 5.388 5.388h18.5a5.4 5.4 0 0 1 -5.388-5.383z" fill="#f87023"/><path d="m213.269 157.195v-114.595a5.4 5.4 0 0 0 -5.388-5.388h18.5a5.4 5.4 0 0 1 5.388 5.388v114.59a5.4 5.4 0 0 1 -5.388 5.388h-18.5a5.4 5.4 0 0 0 5.388-5.383z" fill="#f8d323"/><path d="m88.847 206.221h78.305v9.429h-78.305z" fill="#f46275"/><path d="m88.847 206.221h18.5v9.429h-18.5z" fill="#f43075"/><path d="m99.983 183.505h56.035v22.716h-56.035z" fill="#9e9e9e"/><path d="m99.983 183.505h18.5v22.716h-18.5z" fill="#707070"/><circle cx="128" cy="173.044" fill="#f46275" r="4.613"/><path d="m54.066 86.471v-8.4a1.1 1.1 0 0 1 1.1-1.1h16.755a1.1 1.1 0 0 1 1.1 1.1v44.659a1.1 1.1 0 0 1 -1.1 1.1h-9.729a1.1 1.1 0 0 1 -1.1-1.1v-34.058a1.1 1.1 0 0 0 -1.1-1.1h-4.825a1.1 1.1 0 0 1 -1.101-1.101z" fill="#3f3679"/><path d="m79.716 99.9q0-10.937 4.44-17.332t14.184-6.4q9.677 0 14.15 6.4t4.475 17.332q0 11-4.475 17.432t-14.15 6.428q-9.743 0-14.184-6.429t-4.44-17.431zm25.981 0q0-6.3-1.491-9.644t-5.866-3.348q-4.441 0-5.965 3.381t-1.524 9.611q0 6.3 1.524 9.71t5.965 3.413q4.374 0 5.866-3.413t1.494-9.71z" fill="#3f3679"/><path d="m155.9 85.781h-18.88a1.1 1.1 0 0 0 -1.1 1.1v5.946a1.134 1.134 0 0 0 1.714.984 11.042 11.042 0 0 1 2.163-1.037 15.832 15.832 0 0 1 5.4-.895 14.077 14.077 0 0 1 7.887 2.087 12.527 12.527 0 0 1 4.706 5.6 19.277 19.277 0 0 1 1.524 7.755q0 7.69-4.308 12.162t-12.13 4.475a20.966 20.966 0 0 1 -9.213-1.89 14.218 14.218 0 0 1 -6.031-5.269 14.891 14.891 0 0 1 -2.176-6.589 1.112 1.112 0 0 1 1.1-1.232h8.917a1.19 1.19 0 0 1 1.156.865 6.113 6.113 0 0 0 1.645 2.847 5.58 5.58 0 0 0 4.076 1.458 5.309 5.309 0 0 0 4.475-1.922 8.1 8.1 0 0 0 1.491-5.1 6.524 6.524 0 0 0 -1.591-4.706 5.867 5.867 0 0 0 -4.44-1.657 6.493 6.493 0 0 0 -3.646.961 4.953 4.953 0 0 0 -1.731 1.882 1.131 1.131 0 0 1 -1.012.6h-9.148a1.1 1.1 0 0 1 -1.1-1.1v-26.166a1.1 1.1 0 0 1 1.1-1.1h29.152a1.1 1.1 0 0 1 1.1 1.1v7.741a1.1 1.1 0 0 1 -1.1 1.1z" fill="#3f3679"/><path d="m198.514 85.781h-18.877a1.1 1.1 0 0 0 -1.1 1.1v5.946a1.134 1.134 0 0 0 1.714.984 11.042 11.042 0 0 1 2.163-1.037 15.832 15.832 0 0 1 5.4-.895 14.077 14.077 0 0 1 7.887 2.087 12.527 12.527 0 0 1 4.706 5.6 19.277 19.277 0 0 1 1.524 7.755q0 7.69-4.308 12.162t-12.13 4.475a20.966 20.966 0 0 1 -9.213-1.89 14.218 14.218 0 0 1 -6.031-5.269 14.891 14.891 0 0 1 -2.176-6.589 1.112 1.112 0 0 1 1.1-1.232h8.917a1.19 1.19 0 0 1 1.156.865 6.113 6.113 0 0 0 1.645 2.847 5.58 5.58 0 0 0 4.076 1.458 5.309 5.309 0 0 0 4.475-1.922 8.1 8.1 0 0 0 1.491-5.1 6.524 6.524 0 0 0 -1.591-4.706 5.867 5.867 0 0 0 -4.44-1.657 6.493 6.493 0 0 0 -3.646.961 4.953 4.953 0 0 0 -1.731 1.882 1.131 1.131 0 0 1 -1.012.6h-9.148a1.1 1.1 0 0 1 -1.1-1.1v-26.166a1.1 1.1 0 0 1 1.1-1.1h29.15a1.1 1.1 0 0 1 1.1 1.1v7.741a1.1 1.1 0 0 1 -1.101 1.1z" fill="#3f3679"/><path d="m195.732 144.884 21.068 21.068a1.214 1.214 0 0 1 0 1.716l-22.983 22.983a1.214 1.214 0 0 1 -1.716 0l-21.068-21.068a1.214 1.214 0 0 0 -1.716 0l-4.137 4.137a1.214 1.214 0 0 1 -2.072-.858v-34.69a1.214 1.214 0 0 1 1.214-1.214h34.69a1.214 1.214 0 0 1 .858 2.072l-4.137 4.137a1.214 1.214 0 0 0 -.001 1.717z" fill="#f46275"/><g fill="#3f3679"><path d="m29.619 185.006h68.863v19.715h-9.634a1.5 1.5 0 0 0 -1.5 1.5v7.93h-61.458a1.5 1.5 0 0 0 0 3h204.22a1.5 1.5 0 0 0 0-3h-61.458v-7.93a1.5 1.5 0 0 0 -1.5-1.5h-9.635v-19.715h26.565a1.489 1.489 0 0 0 .228-.023l6.729 6.729a2.715 2.715 0 0 0 3.837 0l6.715-6.712c.026 0 .05.008.076.008h24.714a15.526 15.526 0 0 0 15.509-15.508v-126.9a15.526 15.526 0 0 0 -15.509-15.5h-196.762a15.526 15.526 0 0 0 -15.509 15.5v126.9a15.526 15.526 0 0 0 15.509 15.506zm136.033 29.144h-75.3v-6.43h75.3zm-11.135-9.43h-53.035v-19.714h53.035zm38.44-15.333-20.865-20.865a2.712 2.712 0 0 0 -3.837 0l-3.648 3.648v-33.711h33.712l-3.648 3.648a2.712 2.712 0 0 0 0 3.837l20.865 20.865zm-31.351-51.215v22.91h-131.987a3.892 3.892 0 0 1 -3.888-3.889v-114.593a3.892 3.892 0 0 1 3.888-3.889h196.762a3.892 3.892 0 0 1 3.888 3.889v114.59a3.892 3.892 0 0 1 -3.888 3.889h-12.329l-17.052-17.054 3.934-3.934a2.713 2.713 0 0 0 -1.918-4.633h-34.696a2.717 2.717 0 0 0 -2.713 2.715zm-144.496-95.572a12.523 12.523 0 0 1 12.509-12.5h196.762a12.523 12.523 0 0 1 12.509 12.5v126.9a12.523 12.523 0 0 1 -12.509 12.509h-21.8l13.277-13.277a2.717 2.717 0 0 0 0-3.837l-.809-.809h9.329a6.9 6.9 0 0 0 6.888-6.889v-114.597a6.9 6.9 0 0 0 -6.888-6.889h-196.759a6.9 6.9 0 0 0 -6.888 6.889v114.59a6.9 6.9 0 0 0 6.888 6.889h131.988v8.779a2.713 2.713 0 0 0 4.632 1.919l3.935-3.935 11.16 11.159h-151.715a12.523 12.523 0 0 1 -12.509-12.501z"/><path d="m128 179.157a6.113 6.113 0 1 0 -6.113-6.113 6.12 6.12 0 0 0 6.113 6.113zm0-9.227a3.113 3.113 0 1 1 -3.113 3.113 3.117 3.117 0 0 1 3.113-3.112z"/><path d="m25.89 225.9h-18.5a1.5 1.5 0 1 0 0 3h18.5a1.5 1.5 0 1 0 0-3z"/><path d="m248.61 225.9h-18.5a1.5 1.5 0 0 0 0 3h18.5a1.5 1.5 0 0 0 0-3z"/><path d="m215.337 225.9h-174.674a1.5 1.5 0 0 0 0 3h174.674a1.5 1.5 0 0 0 0-3z"/><path d="m7.39 217.15h7.943a1.5 1.5 0 1 0 0-3h-7.943a1.5 1.5 0 1 0 0 3z"/><path d="m239.167 215.65a1.5 1.5 0 0 0 1.5 1.5h7.943a1.5 1.5 0 0 0 0-3h-7.943a1.5 1.5 0 0 0 -1.5 1.5z"/></g></svg>